<?xml version="1.0"?><svg width="640" height="480" xmlns="http://www.w3.org/2000/svg">
 <g>
  <title>Layer 1</title>
  <path fill="#ffffff" fill-rule="evenodd" stroke="#000000" stroke-width="10" stroke-linejoin="round" id="path968" d="m295.630219,99.977654c17.38028,1.662666 27.383667,0.255638 42.203461,7.594757c14.819794,7.339111 17.662231,-0.440498 29.559448,11.457962c11.897247,11.898445 19.591003,1.048561 28.203552,16.389244c-20.000519,7.670349 -58.668457,37.1754 -68.17392,49.544739c-10.724945,13.956207 -15.939484,34.279755 6.430786,41.78685c-28.133606,8.651947 -28.743591,34.646255 1.460968,50.147446c-29.421997,4.457245 -21.987396,40.59494 3.614441,53.956116c-20.390839,14.348022 -21.512665,33.858185 2.249146,41.384918c-16.050537,14.621429 6.999908,34.889832 44.601135,37.543304c-9.244598,14.143951 -25.997925,20.372101 -27.851563,24.519775c-17.429962,7.015015 -237.519623,-14.98761 -254.196747,-36.602295c12.845482,-1.647156 34.214478,-6.526031 42.995468,-14.535889c8.780991,-8.009857 58.51239,-23.151703 35.909592,-37.979279c16.288086,-16.595306 7.701019,-57.183197 -8.733704,-52.169983c6.546234,-17.083862 22.199493,-40.184525 -8.508499,-59.412659c22.325012,-13.040939 20.554672,-28.136612 -1.45575,-45.027206c23.951538,-8.935638 -41.279961,-37.343887 -69.863251,-75.242226c8.53981,-6.962418 22.791885,-7.50502 31.585487,-10.206848c5.483055,-1.870499 152.589668,-5.642731 169.969948,-3.148727z"/>
  <path fill="#ffffff" fill-rule="evenodd" stroke="#000000" stroke-width="10" stroke-linejoin="round" stroke-linecap="round" id="path866" d="m273.693359,167.944794c-28.940216,-21.879791 -44.852692,-22.833328 -86.308548,-11.439651c-15.823242,-20.426117 -66.91259,-4.640198 -95.495888,-42.538521c8.539818,-6.962418 17.488594,-11.924438 26.282196,-14.626274c5.48307,-1.870499 10.849754,-3.54615 16.043465,-5.046448c5.193726,-1.500298 10.214478,-2.825226 15.005692,-3.994293c4.791229,-1.16906 9.352905,-2.182243 13.628464,-3.059044c4.275574,-0.876793 8.265015,-1.617203 11.911774,-2.2407c3.646759,-0.623489 6.950821,-1.130096 9.855621,-1.539261c2.9048,-0.409172 5.410324,-0.720924 7.460007,-0.954735c2.049683,-0.23381 3.643524,-0.389687 4.724945,-0.487114c1.081421,-0.09742 1.650421,-0.136391 1.650421,-0.136391c0,0 90.870819,-18.236782 100.296173,-5.136185c17.38028,-4.524529 50.364655,5.558952 32.480774,19.085251c29.965729,-7.55558 58.320831,-2.208267 51.656525,14.109612c22.55188,4.304268 27.545929,31.984482 5.222565,25.228073c11.819275,17.393082 -13.773651,15.592606 -24.863647,26.563782c-28.402588,28.098328 -82.230713,-27.592102 -89.028595,5.547623m-50.609268,231.382782c-11.552017,32.025665 74.830612,24.135468 89.753616,-4.577026c0.743225,28.76358 35.28418,14.560516 72.885376,17.213989c-9.244598,14.143951 -16.275208,23.907623 -18.128815,28.055298c-9.475037,14.969971 -76.142212,26.602661 -94.350128,39.072632c-11.586853,9.144653 -89.435669,-1.220001 -107.59227,-13.301331c-24.828979,-22.238159 -45.29995,-44.294464 -61.977081,-65.909119c12.845482,-1.647156 34.214462,-6.526031 42.995453,-14.535889c8.780991,-8.009857 41.718643,38.720123 76.568253,15.053711"/>
  <path fill="#ffffff" fill-rule="evenodd" stroke="#000000" stroke-width="10" stroke-linejoin="round" id="path867" d="m225.443695,132.321014c-3.310547,-19.951981 35.071442,-111.237774 46.658295,-112.900425c7.4487,-0.831339 40.550354,16.107841 21.104889,26.714451c0,8.83884 -7.448669,-1.66267 -12.41449,1.66267c-11.586853,12.46999 -30.943771,51.437542 -37.564835,82.196873l-17.783859,2.326431z"/>
  <path d="m198,121c0,0 0.693436,0.458801 2,1c0.923874,0.382683 2.292892,-0.707108 3,0c0.707108,0.707108 1.292892,0.292892 2,1c0.707108,0.707108 1,1 2,2c1,1 1.292892,1.292892 2,2c1.414215,1.414215 1.292892,1.292892 2,2c0.707108,0.707108 1.292892,0.292892 2,1c0.707108,0.707108 1.292892,0.292892 2,1c0.707108,0.707108 1,1 2,1c1,0 2.076126,-0.38269 3,0c1.306564,0.541199 2,1 3,1c2,0 3.292892,-0.707108 4,0c0.707108,0.707108 1,1 2,1c1,0 2,0 3,0c1,0 2,0 3,0c1,0 2,0 3,0c1,0 2,0 3,0c1,0 2,0 3,0c1,0 2,0 3,0c1,0 2,0 4,0c1,0 2,0 3,0c1,0 2,0 3,0c1,0 2,0 3,0c1,0 2,0 3,0c1,0 2,0 3,0l1,-1" id="svg_1" stroke-linecap="null" stroke-linejoin="null" stroke-dasharray="null" stroke-width="9" stroke="#000000" fill="none"/>
  <ellipse fill="#000000" stroke="#000000" stroke-width="1.0000000pt" stroke-dasharray="null" stroke-linejoin="null" stroke-linecap="null" cx="238" cy="236" id="svg_2" rx="6" ry="14"/>
  <ellipse ry="14" rx="6" id="svg_3" cy="265" cx="261" stroke-linecap="null" stroke-linejoin="null" stroke-dasharray="null" stroke-width="1.0000000pt" stroke="#000000" fill="#000000"/>
  <ellipse ry="14" rx="7" id="svg_4" cy="286" cx="243" stroke-linecap="null" stroke-linejoin="null" stroke-dasharray="null" stroke-width="1.0000000pt" stroke="#000000" fill="#000000"/>
 </g>
</svg>